<svg width="256" height="256" viewBox="0 0 256 256" xmlns="http://www.w3.org/2000/svg">
  <defs>
    <linearGradient id="bg" x1="0" y1="0" x2="1" y2="1">
      <stop offset="0" stop-color="#1f6feb"/>
      <stop offset="1" stop-color="#0b3a8f"/>
    </linearGradient>
    <linearGradient id="fin" x1="0" y1="0" x2="0" y2="1">
      <stop offset="0" stop-color="#ffffff"/>
      <stop offset="1" stop-color="#cfe3ff"/>
    </linearGradient>
  </defs>
  <rect x="8" y="8" width="240" height="240" rx="54" fill="url(#bg)"/>
  <!-- chat bubble -->
  <path d="M64 74h128a20 20 0 0 1 20 20v58a20 20 0 0 1-20 20h-58l-34 30v-30H64a20 20 0 0 1-20-20V94a20 20 0 0 1 20-20z"
        fill="#0d1b3e" opacity="0.35"/>
  <!-- shark fin -->
  <path d="M132 92c34 6 54 30 60 58-16-12-30-16-46-15 6-14 2-30-14-43z"
        fill="url(#fin)"/>
  <!-- waves -->
  <path d="M70 150c10-10 22-10 32 0s22 10 32 0" fill="none" stroke="#8fb6ff" stroke-width="7" stroke-linecap="round"/>
</svg>
